<svg width="465" height="106" viewBox="0 0 465 106" fill="none" xmlns="http://www.w3.org/2000/svg">
<g clipPath="url(#clip0_7292_199502)">
<path fillRule="evenodd" clipRule="evenodd" d="M226.467 58.3046V1.30789C226.467 0.53987 225.782 -0.0440858 225.024 0.0743972L214.348 1.75432C213.741 1.84953 213.292 2.37424 213.292 2.98993L213.328 60.797C213.328 63.5305 213.328 80.4101 233.633 81.0004C234.338 81.0216 234.922 80.4546 234.922 79.75V71.1219C234.922 70.4956 234.459 69.9561 233.839 69.8863C226.465 69.0379 226.465 59.8216 226.465 58.3088L226.467 58.3046Z" fill="white"/>
<path d="M402.538 22.2178H391.794C391.104 22.2178 390.545 22.7768 390.545 23.4661V79.7667C390.545 80.456 391.104 81.015 391.794 81.015H402.538C403.225 81.015 403.786 80.456 403.786 79.7667V23.4661C403.786 22.7768 403.225 22.2178 402.538 22.2178Z" fill="white"/>
<path fillRule="evenodd" clipRule="evenodd" d="M391.794 15.1598H402.536C403.225 15.1598 403.784 14.6012 403.784 13.9115V1.30785C403.784 0.541942 403.098 -0.0441297 402.341 0.0743533L391.599 1.75639C390.992 1.8516 390.543 2.37419 390.543 2.98988V13.9115C390.543 14.6012 391.102 15.1598 391.792 15.1598H391.794Z" fill="white"/>
<path fillRule="evenodd" clipRule="evenodd" d="M373.228 58.3046V1.30789C373.228 0.53987 372.542 -0.0440858 371.785 0.0743972L361.109 1.75432C360.501 1.84953 360.053 2.37424 360.053 2.98993L360.089 60.797C360.089 63.5305 360.089 80.4101 380.394 81.0004C381.098 81.0216 381.682 80.4546 381.682 79.75V71.1219C381.682 70.4956 381.219 69.9561 380.599 69.8863C373.226 69.0379 373.226 59.8216 373.226 58.3088L373.228 58.3046Z" fill="white"/>
<path fillRule="evenodd" clipRule="evenodd" d="M345.283 30.2554C342.926 27.6636 340.029 25.6748 336.655 24.2657C333.286 22.8841 329.618 22.1816 325.638 22.1816C321.664 22.1816 317.989 22.8523 314.653 24.2657C311.354 25.6748 308.456 27.6615 306.029 30.2554C303.602 32.843 301.717 35.9405 300.367 39.5711C299.017 43.2039 298.412 47.4778 298.412 51.9188C298.412 56.3598 299.087 59.7196 300.433 63.3883C301.783 67.0529 303.636 70.1821 306.029 72.7739C308.418 75.3615 311.282 77.3482 314.619 78.7954C317.955 80.2404 323.107 80.981 325.706 81.0127C328.297 81.0127 333.487 80.2045 336.856 78.7954C340.224 77.382 343.089 75.3615 345.484 72.7739C347.872 70.1821 349.726 67.0529 351.038 63.3883C352.354 59.7196 352.993 56.3598 352.993 51.9188C352.993 47.4778 352.286 43.2039 350.87 39.5711C349.521 35.9384 347.667 32.843 345.278 30.2554H345.283ZM335.882 64.9011C333.456 68.2335 330.051 69.9155 325.708 69.9155C321.36 69.9155 317.958 68.2652 315.531 64.9011C313.104 61.5688 311.89 57.7054 311.89 51.9526C311.89 46.2633 313.072 41.5557 315.499 38.2276C317.922 34.8953 321.326 33.2513 325.67 33.2513C330.017 33.2513 333.42 34.8974 335.844 38.2276C338.271 41.5219 339.517 46.2633 339.517 51.9526C339.517 57.7054 338.307 61.5371 335.88 64.9011H335.882Z" fill="white"/>
<path fillRule="evenodd" clipRule="evenodd" d="M189.238 22.2178H178.8C168.569 22.2178 159.566 27.6088 154.31 35.7798C151.238 40.5573 149.446 46.2804 149.446 52.4373C149.446 61.935 153.705 70.4044 160.362 75.9435C160.981 76.4936 161.642 76.9971 162.331 77.4541C165.052 79.2504 168.279 80.3041 171.751 80.3041C172.011 80.3041 172.271 80.2977 172.529 80.285C172.605 80.2808 172.68 80.2745 172.756 80.2702C172.94 80.2596 173.126 80.247 173.31 80.2279C173.382 80.2216 173.454 80.211 173.526 80.2025C173.718 80.1814 173.911 80.1581 174.103 80.1306C174.148 80.1242 174.192 80.1158 174.237 80.1094C181.196 79.0367 187.261 73.5886 189.238 66.8203V79.0558C189.238 79.7455 189.796 80.3041 190.486 80.3041H201.154C201.843 80.3041 202.402 79.7455 202.402 79.0558V23.4661C202.402 22.7763 201.843 22.2178 201.154 22.2178H189.238ZM189.238 65.9972C186.656 68.1469 183.32 68.9551 179.75 69.1963C179.717 69.1984 179.681 69.2026 179.647 69.2048C179.41 69.2196 179.173 69.2259 178.936 69.2259C169.999 69.2259 162.619 61.6324 162.619 52.4331C162.619 50.2644 163.034 48.1994 163.766 46.3016C166.14 40.1404 171.969 35.7777 178.8 35.7777H189.238V65.9972Z" fill="white"/>
<path fillRule="evenodd" clipRule="evenodd" d="M451.499 22.2178H441.062C430.83 22.2178 421.827 27.6088 416.572 35.7798C413.5 40.5573 411.708 46.2804 411.708 52.4373C411.708 61.935 415.967 70.4044 422.623 75.9435C423.243 76.4936 423.903 76.9971 424.593 77.4541C427.313 79.2504 430.54 80.3041 434.012 80.3041C434.272 80.3041 434.532 80.2977 434.791 80.285C434.867 80.2808 434.941 80.2745 435.017 80.2702C435.201 80.2596 435.387 80.247 435.571 80.2279C435.643 80.2216 435.715 80.211 435.787 80.2025C435.98 80.1814 436.172 80.1581 436.365 80.1306C436.409 80.1242 436.454 80.1158 436.498 80.1094C443.457 79.0367 449.523 73.5886 451.499 66.8203V79.0558C451.499 79.7455 452.057 80.3041 452.747 80.3041H463.415C464.105 80.3041 464.663 79.7455 464.663 79.0558V23.4661C464.663 22.7763 464.105 22.2178 463.415 22.2178H451.499ZM451.499 65.9972C448.918 68.1469 445.581 68.9551 442.012 69.1963C441.978 69.1984 441.942 69.2026 441.908 69.2048C441.671 69.2196 441.434 69.2259 441.197 69.2259C432.26 69.2259 424.88 61.6324 424.88 52.4331C424.88 50.2644 425.295 48.1994 426.027 46.3016C428.401 40.1404 434.23 35.7777 441.062 35.7777H451.499V65.9972Z" fill="white"/>
<path fillRule="evenodd" clipRule="evenodd" d="M278.023 22.2178H267.586C257.354 22.2178 248.351 27.6088 243.096 35.7798C240.601 39.6602 238.949 44.1668 238.418 49.0224C238.295 50.1438 238.231 51.2821 238.231 52.4373C238.231 53.5925 238.297 54.7964 238.428 55.9473C239.334 64.0063 243.324 71.0984 249.147 75.9456C249.767 76.4957 250.427 76.9992 251.116 77.4563C253.837 79.2525 257.064 80.3062 260.536 80.3062C264.342 80.3062 267.859 79.0515 270.725 76.9273C274.172 74.4772 276.836 70.8889 278.021 66.8245V77.4584H277.997V79.8026C277.997 84.4235 276.789 87.8997 274.329 90.2461C271.872 92.5903 267.761 93.7646 262.004 93.7646C259.651 93.7646 255.913 93.6398 252.145 93.2547C251.546 93.1933 250.99 93.5721 250.818 94.1476L248.114 103.269C247.898 104.001 248.383 104.754 249.136 104.862C253.689 105.513 258.132 105.852 260.699 105.852C271.047 105.852 278.717 103.578 283.737 99.0371C288.282 94.9304 290.751 88.6931 291.185 80.3083V23.4703C291.185 22.7806 290.626 22.222 289.937 22.222H278.021L278.023 22.2178ZM278.023 35.7798C278.023 35.7798 278.16 65.2165 278.023 66.1115C275.467 68.1786 272.287 68.9868 268.821 69.2217C268.787 69.2238 268.751 69.228 268.718 69.2301C268.481 69.245 268.244 69.2513 268.007 69.2513C267.727 69.2513 267.45 69.245 267.173 69.2301C258.623 68.7837 251.406 61.3468 251.406 52.4352C251.406 50.2665 251.821 48.2015 252.553 46.3037C254.927 40.1426 260.756 35.7798 267.588 35.7798H278.025H278.023Z" fill="white"/>
<path d="M52.8574 0.0594113C23.9708 0.0594113 0.422381 23.3498 0.00557456 52.139C-0.417579 81.3768 23.3043 105.605 52.5464 105.774C61.5765 105.827 70.2744 103.618 77.9991 99.4201C78.7523 99.0118 78.8686 97.9751 78.2276 97.408L73.2809 93.0242C72.2759 92.1334 70.8457 91.8816 69.6079 92.4063C64.217 94.6998 58.3584 95.872 52.32 95.7979C28.6911 95.5081 9.60059 75.8483 9.97718 52.2216C10.3496 28.8931 29.4422 10.031 52.8574 10.031H95.7419V86.2558L71.4106 64.6369C70.6235 63.9366 69.4175 64.0741 68.7828 64.9141C64.8771 70.085 58.515 73.301 51.4483 72.8143C41.6459 72.1373 33.7033 64.2455 32.9692 54.4473C32.0911 42.7598 41.354 32.9681 52.8574 32.9681C63.2627 32.9681 71.8316 40.9763 72.7266 51.1531C72.807 52.0586 73.2153 52.9028 73.8945 53.5058L80.2312 59.1232C80.9506 59.76 82.091 59.3707 82.2687 58.425C82.7257 55.9813 82.8865 53.436 82.7067 50.8252C81.6869 35.9428 69.6312 23.9697 54.7425 23.0536C37.6725 22.002 23.4017 35.3547 22.9489 52.0925C22.5067 68.4051 35.872 82.4665 52.1867 82.8261C58.9974 82.9764 65.3108 80.8352 70.4119 77.1241L102.203 105.306C103.566 106.514 105.718 105.547 105.718 103.726V2.06092C105.718 0.952257 104.821 0.0551758 103.712 0.0551758H52.8574V0.0594113Z" fill="white"/>
</g>
<defs>
<clipPath id="clip0_7292_199502">
<rect width="465" height="106" fill="white"/>
</clipPath>
</defs>
</svg>
