<svg width="300" height="300" viewBox="0 0 300 300" fill="none" xmlns="http://www.w3.org/2000/svg">
<mask id="mask0_7972_611" style="mask-type:luminance" maskUnits="userSpaceOnUse" x="6" y="50" width="287" height="201">
<path d="M6.0625 50.5264H292.303V250.474H6.0625V50.5264Z" fill="#00A1E0" style="fill:#00A1E0;fill:color(display-p3 0.0000 0.6314 0.8784);fill-opacity:1;"/>
</mask>
<g mask="url(#mask0_7972_611)">
<path fill-rule="evenodd" clip-rule="evenodd" d="M124.916 72.4148C134.156 62.7963 147.015 56.84 161.222 56.84C180.165 56.84 196.581 67.3635 205.421 83.0436C213.268 79.5359 221.767 77.7249 230.362 77.7292C264.458 77.7292 292.135 105.617 292.135 140.029C292.135 174.441 264.458 202.328 230.362 202.328C226.195 202.328 222.133 201.909 218.155 201.118C210.42 214.904 195.634 224.27 178.796 224.27C171.941 224.283 165.174 222.728 159.012 219.724C151.172 238.14 132.914 251.084 111.656 251.084C89.4515 251.084 70.6143 237.088 63.353 217.408C60.1212 218.091 56.827 218.433 53.524 218.431C27.1099 218.431 5.74707 196.753 5.74707 170.128C5.74707 152.238 15.3656 136.663 29.6356 128.244C26.6082 121.27 25.0499 113.748 25.0578 106.145C25.0578 75.4162 49.9986 50.5806 80.7274 50.5806C98.7227 50.5806 114.824 59.1573 124.926 72.4696" fill="#00A1E0" style="fill:#00A1E0;fill:color(display-p3 0.0000 0.6314 0.8784);fill-opacity:1;"/>
</g>
<path fill-rule="evenodd" clip-rule="evenodd" d="M47.4625 154.499C47.2826 154.968 47.5267 155.066 47.5846 155.149C48.1224 155.538 48.6685 155.82 49.2158 156.137C52.1413 157.684 54.8985 158.137 57.7819 158.137C63.6541 158.137 67.3058 155.011 67.3058 149.981V149.882C67.3058 145.231 63.1805 143.536 59.3289 142.326L58.8248 142.163C55.9098 141.218 53.3947 140.395 53.3947 138.48V138.382C53.3947 136.74 54.868 135.53 57.1411 135.53C59.6667 135.53 62.6765 136.371 64.6023 137.435C64.6023 137.435 65.1726 137.803 65.38 137.253C65.4926 136.955 66.4744 134.327 66.5796 134.032C66.6912 133.724 66.4955 133.492 66.2945 133.372C64.0845 132.025 61.0327 131.109 57.8756 131.109L57.2894 131.111C51.9119 131.111 48.155 134.363 48.155 139.014V139.114C48.155 144.018 52.3013 145.618 56.1739 146.723L56.7969 146.916C59.6173 147.784 62.0587 148.537 62.0587 150.515V150.614C62.0587 152.435 60.4697 153.793 57.923 153.793C56.9327 153.793 53.7767 153.776 50.3565 151.614C49.9429 151.373 49.7072 151.2 49.3884 151.005C49.22 150.903 48.799 150.719 48.6159 151.27L47.4583 154.49M133.436 154.49C133.256 154.96 133.5 155.057 133.56 155.141C134.096 155.53 134.644 155.812 135.191 156.129C138.117 157.676 140.874 158.128 143.757 158.128C149.629 158.128 153.281 155.003 153.281 149.972V149.874C153.281 145.222 149.166 143.528 145.304 142.318L144.8 142.155C141.885 141.21 139.37 140.387 139.37 138.471V138.373C139.37 136.732 140.843 135.522 143.116 135.522C145.642 135.522 148.641 136.362 150.578 137.426C150.578 137.426 151.148 137.795 151.356 137.244C151.468 136.946 152.451 134.319 152.546 134.024C152.658 133.716 152.461 133.483 152.261 133.363C150.051 132.016 147 131.101 143.843 131.101L143.255 131.103C137.878 131.103 134.121 134.354 134.121 139.006V139.106C134.121 144.01 138.267 145.609 142.14 146.714L142.762 146.908C145.593 147.775 148.024 148.529 148.024 150.507V150.606C148.024 152.427 146.435 153.784 143.888 153.784C142.895 153.784 139.731 153.767 136.321 151.606C135.908 151.365 135.666 151.198 135.352 150.996C135.246 150.929 134.75 150.735 134.581 151.262L133.423 154.482M192.145 144.632C192.145 147.473 191.614 149.715 190.577 151.304C189.541 152.872 187.977 153.64 185.799 153.64C183.621 153.64 182.063 152.878 181.042 151.314C180.014 149.736 179.495 147.484 179.495 144.642C179.495 141.801 180.017 139.57 181.042 138.002C182.061 136.444 183.61 135.697 185.799 135.697C187.988 135.697 189.545 136.452 190.577 138.002C191.621 139.57 192.145 141.801 192.145 144.642M197.049 139.37C196.566 137.739 195.817 136.308 194.818 135.108C193.817 133.908 192.555 132.94 191.05 132.246C189.556 131.546 187.788 131.193 185.788 131.193C183.789 131.193 182.032 131.548 180.527 132.246C179.032 132.944 177.759 133.908 176.759 135.108C175.762 136.308 175.012 137.739 174.528 139.37C174.049 140.991 173.806 142.759 173.806 144.642C173.806 146.526 174.049 148.294 174.528 149.915C175.009 151.546 175.759 152.977 176.759 154.177C177.76 155.376 179.032 156.334 180.527 157.018C182.032 157.7 183.799 158.047 185.788 158.047C187.777 158.047 189.545 157.7 191.04 157.018C192.534 156.336 193.807 155.376 194.807 154.177C195.806 152.977 196.554 151.546 197.038 149.915C197.516 148.294 197.759 146.526 197.759 144.642C197.759 142.769 197.516 140.991 197.038 139.37M237.343 152.84C237.182 152.363 236.717 152.543 236.717 152.543C236.005 152.816 235.244 153.069 234.434 153.195C233.617 153.323 232.708 153.387 231.75 153.387C229.382 153.387 227.488 152.681 226.141 151.283C224.783 149.883 224.026 147.631 224.036 144.579C224.044 141.801 224.715 139.717 225.92 138.118C227.109 136.539 228.94 135.718 231.361 135.718C233.381 135.718 234.928 135.953 236.549 136.46C236.549 136.46 236.933 136.628 237.117 136.121C237.548 134.932 237.865 134.08 238.327 132.775C238.458 132.401 238.138 132.243 238.021 132.198C237.385 131.95 235.885 131.543 234.748 131.371C233.685 131.209 232.454 131.125 231.065 131.125C229.002 131.125 227.171 131.477 225.603 132.176C224.035 132.874 222.709 133.839 221.657 135.038C220.605 136.238 219.805 137.669 219.268 139.301C218.737 140.921 218.468 142.7 218.468 144.583C218.468 148.645 219.563 151.939 221.731 154.349C223.898 156.77 227.161 157.99 231.412 157.99C233.927 157.99 236.506 157.482 238.358 156.749C238.358 156.749 238.711 156.578 238.558 156.166L237.348 152.84M245.924 141.896C246.159 140.317 246.591 139.002 247.271 137.981C248.289 136.423 249.839 135.571 252.017 135.571C254.196 135.571 255.638 136.428 256.669 137.981C257.353 139.007 257.652 140.37 257.763 141.896L245.872 141.894L245.924 141.896ZM262.446 138.423C262.028 136.855 260.994 135.266 260.32 134.54C259.247 133.393 258.205 132.582 257.163 132.14C255.659 131.501 254.041 131.172 252.407 131.175C250.334 131.175 248.45 131.526 246.924 132.238C245.398 132.956 244.114 133.932 243.104 135.153C242.095 136.374 241.336 137.816 240.852 139.468C240.368 141.099 240.124 142.888 240.124 144.761C240.124 146.677 240.377 148.455 240.876 150.065C241.38 151.686 242.192 153.106 243.286 154.285C244.38 155.474 245.78 156.4 247.464 157.053C249.137 157.7 251.168 158.036 253.494 158.028C258.293 158.012 260.818 156.944 261.85 156.366C262.034 156.262 262.207 156.085 261.991 155.572L260.907 152.531C260.74 152.077 260.282 152.241 260.282 152.241C259.092 152.685 257.409 153.483 253.462 153.473C250.884 153.468 248.979 152.708 247.78 151.515C246.559 150.295 245.948 148.516 245.854 145.99L262.481 146.003C262.481 146.003 262.919 145.999 262.964 145.572C262.982 145.395 263.533 142.162 262.468 138.426L262.446 138.423ZM113.012 141.896C113.246 140.317 113.68 139.002 114.359 137.981C115.377 136.423 116.926 135.571 119.105 135.571C121.283 135.571 122.725 136.428 123.756 137.981C124.439 139.007 124.738 140.37 124.851 141.896L112.959 141.894L113.012 141.896ZM129.534 138.423C129.117 136.855 128.081 135.266 127.408 134.54C126.335 133.393 125.293 132.582 124.251 132.14C122.747 131.501 121.129 131.172 119.494 131.175C117.421 131.175 115.537 131.526 114.011 132.238C112.486 132.956 111.202 133.932 110.191 135.153C109.184 136.374 108.423 137.816 107.939 139.468C107.456 141.099 107.213 142.888 107.213 144.761C107.213 146.677 107.465 148.455 107.967 150.065C108.47 151.686 109.282 153.106 110.366 154.285C111.461 155.474 112.86 156.4 114.544 157.053C116.217 157.7 118.238 158.036 120.574 158.028C125.373 158.012 127.898 156.944 128.93 156.366C129.113 156.262 129.287 156.085 129.07 155.572L127.986 152.531C127.818 152.077 127.36 152.241 127.36 152.241C126.17 152.685 124.487 153.483 120.54 153.473C117.973 153.468 116.057 152.708 114.858 151.515C113.637 150.295 113.026 148.516 112.932 145.99L129.559 146.003C129.559 146.003 129.997 145.999 130.042 145.572C130.06 145.395 130.611 142.162 129.545 138.426L129.534 138.423ZM77.1264 152.735C76.4749 152.215 76.3844 152.088 76.1687 151.75C75.8393 151.242 75.6709 150.519 75.6709 149.593C75.6709 148.14 76.155 147.088 77.1548 146.383C77.1442 146.385 78.586 145.141 81.9746 145.183C83.4828 145.21 84.9876 145.339 86.4786 145.567V153.113H86.4807C86.4807 153.113 84.376 153.566 81.9977 153.709C78.6197 153.913 77.1253 152.737 77.1358 152.74L77.1264 152.735ZM83.7351 141.054C83.0616 141.004 82.1882 140.98 81.1464 140.98C79.7257 140.98 78.3471 141.157 77.0632 141.504C75.7688 141.854 74.6007 142.394 73.601 143.114C72.5985 143.829 71.7739 144.766 71.1911 145.85C70.6028 146.945 70.3029 148.229 70.3029 149.681C70.3029 151.154 70.5586 152.428 71.0637 153.469C71.5587 154.503 72.3039 155.396 73.2316 156.069C74.1545 156.74 75.2942 157.237 76.6096 157.532C77.9146 157.829 79.3879 157.98 81.0085 157.98C82.7133 157.98 84.4076 157.837 86.0493 157.56C87.4475 157.319 88.8404 157.048 90.2271 156.748C90.7807 156.62 91.3953 156.453 91.3953 156.453C91.8057 156.349 91.7741 155.91 91.7741 155.91L91.7646 140.756C91.7646 137.431 90.8764 134.957 89.1232 133.432C87.3763 131.906 84.8191 131.137 81.5042 131.137C80.2624 131.137 78.2524 131.306 77.0527 131.547C77.0527 131.547 73.4326 132.25 71.9382 133.42C71.9382 133.42 71.6099 133.622 71.7888 134.08L72.9674 137.237C73.1137 137.646 73.5126 137.506 73.5126 137.506C73.5126 137.506 73.6378 137.457 73.7851 137.369C76.9738 135.633 81.0148 135.686 81.0148 135.686C82.8038 135.686 84.1929 136.049 85.119 136.759C86.0251 137.455 86.4871 138.506 86.4871 140.716V141.418C85.0664 141.212 83.7509 141.093 83.7509 141.093L83.7351 141.054ZM217.384 132.498C217.408 132.443 217.421 132.383 217.421 132.322C217.422 132.262 217.41 132.202 217.386 132.146C217.363 132.091 217.329 132.04 217.286 131.998C217.243 131.956 217.191 131.922 217.135 131.9C216.852 131.793 215.441 131.495 214.357 131.428C212.273 131.297 211.115 131.649 210.074 132.116C209.044 132.58 207.906 133.326 207.274 134.189L207.272 132.169C207.272 131.891 207.075 131.667 206.796 131.667H202.544C202.268 131.667 202.068 131.891 202.068 132.169V156.899C202.069 157.033 202.122 157.161 202.216 157.255C202.311 157.35 202.439 157.403 202.572 157.403H206.929C207.063 157.403 207.191 157.35 207.285 157.255C207.379 157.161 207.432 157.033 207.432 156.899V144.481C207.432 142.819 207.615 141.166 207.981 140.125C208.34 139.094 208.83 138.272 209.433 137.683C210.008 137.114 210.712 136.692 211.485 136.452C212.21 136.244 212.961 136.138 213.716 136.138C214.584 136.138 215.536 136.361 215.536 136.361C215.856 136.397 216.034 136.201 216.143 135.913C216.428 135.154 217.237 132.882 217.395 132.43" fill="#FFFFFE" style="fill:#FFFFFE;fill:color(display-p3 1.0000 1.0000 0.9961);fill-opacity:1;"/>
<path fill-rule="evenodd" clip-rule="evenodd" d="M176.693 121.084C176.154 120.922 175.607 120.792 175.052 120.695C174.307 120.571 173.552 120.512 172.796 120.52C169.794 120.52 167.427 121.368 165.765 123.044C164.115 124.707 162.992 127.24 162.429 130.572L162.226 131.697H158.458C158.458 131.697 157.998 131.678 157.901 132.18L157.282 135.632C157.239 135.963 157.381 136.169 157.823 136.167H161.492L157.769 156.943C157.478 158.617 157.144 159.993 156.775 161.036C156.411 162.065 156.055 162.837 155.617 163.396C155.193 163.938 154.791 164.337 154.098 164.57C153.525 164.762 152.867 164.851 152.145 164.851C151.743 164.851 151.208 164.783 150.813 164.705C150.419 164.627 150.214 164.538 149.918 164.414C149.918 164.414 149.487 164.25 149.318 164.681C149.18 165.034 148.203 167.723 148.087 168.055C147.969 168.384 148.134 168.642 148.342 168.717C148.831 168.892 149.194 169.003 149.859 169.16C150.783 169.378 151.562 169.392 152.291 169.392C153.819 169.392 155.211 169.177 156.366 168.76C157.527 168.34 158.539 167.609 159.433 166.619C160.4 165.551 161.009 164.432 161.591 162.906C162.166 161.394 162.657 159.516 163.049 157.329L166.789 136.167H172.257C172.257 136.167 172.718 136.184 172.814 135.684L173.433 132.232C173.476 131.902 173.335 131.695 172.891 131.697H167.584C167.61 131.577 167.851 129.711 168.46 127.953C168.72 127.203 169.21 126.598 169.624 126.182C170.011 125.786 170.488 125.489 171.014 125.317C171.591 125.139 172.192 125.052 172.796 125.06C173.296 125.06 173.786 125.12 174.16 125.198C174.675 125.307 174.874 125.365 175.009 125.405C175.55 125.571 175.623 125.411 175.729 125.149L176.998 121.663C177.129 121.289 176.811 121.131 176.693 121.084ZM102.529 156.988C102.529 157.265 102.331 157.492 102.054 157.492H97.6515C97.3727 157.492 97.1748 157.265 97.1748 156.988V121.557C97.1748 121.28 97.3727 121.056 97.6515 121.056H102.054C102.331 121.056 102.529 121.28 102.529 121.557V156.988Z" fill="#FFFFFE" style="fill:#FFFFFE;fill:color(display-p3 1.0000 1.0000 0.9961);fill-opacity:1;"/>
</svg>
